<?xml version="1.0" encoding="utf-8"?>
<svg viewBox="0 0 900 600" width="900" height="600" xmlns="http://www.w3.org/2000/svg">
  <path d="M 846.432 310.777 C 840.02 298.306 827.131 273.376 818.527 247.529 C 809.89 221.688 805.505 194.936 792.52 170.028 C 779.567 145.112 757.982 122.047 745.35 97.062 C 732.688 72.083 731.783 45.195 732.181 31.749 L 732.967 0 L 866.826 0 L 867.195 1.724 C 870.032 14.962 875.705 41.437 881.379 67.913 C 887.052 94.389 892.725 120.864 898.398 147.34 C 898.932 149.832 899.466 152.324 900 154.816 L 900 407.954 Z" fill="#ffeb9d" style=""/>
  <path d="M 853.798 239.971 C 846.514 213.841 824.928 190.774 814.391 165.342 C 803.822 139.915 804.269 112.128 799.079 85.549 C 793.889 58.969 783.061 33.599 777.648 20.912 L 763.722 0 L 866.826 0 L 867.195 1.724 C 870.032 14.962 875.705 41.437 881.379 67.913 C 887.052 94.389 892.725 120.864 898.398 147.34 C 898.932 149.832 899.466 152.323 900 154.815 L 900 466.168 C 896.957 428.743 860.503 264.023 853.798 239.971 Z" fill="#edc75b" style=""/>
  <path d="M 887.653 232.717 C 874.312 207.884 853.822 184.583 840.031 159.847 C 826.274 135.104 819.183 108.933 818.889 81.304 C 818.595 53.675 825.033 24.605 828.285 10.062 L 830.513 0 L 900 0 L 900 260.847 C 896.769 251.785 892.728 242.14 887.653 232.717 Z" fill="#dda200" style=""/>
  <path d="M 114.321 502.823 C 107.909 490.352 95.02 465.422 86.416 439.575 C 77.779 413.734 73.394 386.982 60.409 362.074 C 47.456 337.158 25.871 314.093 13.239 289.108 C 0.577 264.129 -0.328 237.241 0.07 223.795 L 0.856 192.046 L 134.715 192.046 L 135.084 193.77 C 137.921 207.008 143.594 233.483 149.268 259.959 C 154.941 286.435 160.614 312.91 166.287 339.386 C 166.821 341.878 167.355 344.37 167.889 346.862 L 167.889 600 L 114.321 502.823 Z" fill="#ffeb9d" style="" transform="matrix(-1, 0, 0, -1, 167.888809, 792.046021)"/>
  <path d="M 90.076 373.803 C 82.792 347.673 61.206 324.606 50.669 299.174 C 40.1 273.747 40.547 245.96 35.357 219.381 C 30.167 192.801 19.339 167.431 13.926 154.744 L 0 133.832 L 103.104 133.832 L 136.278 133.832 C 139.115 147.07 136.278 168.416 136.278 194.549 C 136.278 220.682 136.278 246.472 136.278 271.92 C 136.278 274.469 135.744 286.155 136.278 288.647 L 136.278 600 C 133.235 562.575 96.781 397.855 90.076 373.803 Z" fill="#edc75b" style="" transform="matrix(-1, 0, 0, -1, 136.278, 733.832031)"/>
</svg>