<?xml version="1.0" encoding="utf-8"?>
<svg viewBox="0 0 64 64" width="64" height="64" style="enable-background:new 0 0 24 24;" xmlns="http://www.w3.org/2000/svg">
  <defs>
    <style type="text/css">
	.st0{opacity:0.2;fill:none;stroke:#000000;stroke-width:5.000000e-02;stroke-miterlimit:10;}
</style>
  </defs>
  <path d="M 48.348 7.411 C 46.571 6.4 44.444 7.075 43.371 8.76 C 42.318 10.44 43.029 12.461 44.8 13.475 C 52.264 17.853 57.244 25.6 57.244 33.685 C 57.244 46.821 46.229 57.261 32.348 57.261 C 18.482 57.261 7.464 46.821 7.464 33.685 C 7.464 25.261 12.444 17.515 19.918 13.139 C 21.336 12.125 22.044 10.107 20.971 8.76 C 19.918 7.075 17.771 6.4 16 7.411 C 6.044 12.8 0 22.907 0 33.685 C 0 50.525 14.229 64 32 64 C 49.771 64 64 50.525 64 33.685 C 64 22.907 57.948 13.139 48.348 7.411 Z" style="fill: rgb(61, 61, 61); stroke-width: 2px;"/>
  <path d="M 32 37.053 C 34.136 37.053 35.548 35.707 35.548 33.685 L 35.548 3.368 C 35.548 1.347 34.136 0 32 0 C 29.864 0 28.444 1.347 28.444 3.368 L 28.444 33.685 C 28.444 35.707 29.864 37.053 32 37.053 Z" style="fill: rgb(61, 61, 61);"/>
</svg>