<?xml version="1.0" encoding="utf-8"?>
<svg viewBox="0 0 70 70" width="70" height="70" xmlns="http://www.w3.org/2000/svg">
  <path style="fill: rgb(61, 61, 61);" d="M 59.13 20.652 L 42.591 20.652 C 42.007 20.652 41.454 20.913 41.082 21.364 C 40.711 21.814 40.561 22.407 40.671 22.98 L 45.02 45.434 L 27.305 45.434 C 26.718 45.434 26.163 45.696 25.79 46.15 C 25.418 46.603 25.271 47.2 25.386 47.774 L 28.516 63.426 C 28.707 64.377 29.514 64.962 30.365 64.999 L 59.13 64.999 C 62.367 64.999 65 62.365 65 59.129 L 65 26.521 C 65 23.285 62.367 20.652 59.13 20.652 Z"/>
  <path style="fill:#E6F3FF;" d="M 57.299 34.4 L 49.2 34.4 L 49.2 31.701 C 49.2 30.209 47.991 29 46.499 29 C 45.009 29 43.8 30.209 43.8 31.701 L 43.8 34.4 L 35.701 34.4 C 34.209 34.4 33 35.609 33 37.101 C 33 38.591 34.209 39.8 35.701 39.8 L 38.609 39.8 C 39.125 43.013 40.591 45.447 42.74 47.91 C 41.586 49.035 40.472 50.11 39.19 51.39 C 38.136 52.445 38.136 54.154 39.19 55.209 C 40.245 56.264 41.955 56.264 43.01 55.209 C 44.269 53.949 45.383 52.877 46.501 51.787 C 47.615 52.875 48.73 53.949 49.99 55.209 C 51.045 56.264 52.755 56.264 53.81 55.209 C 54.864 54.154 54.864 52.445 53.81 51.39 C 52.53 50.112 51.416 49.038 50.26 47.91 C 52.41 45.447 53.875 43.013 54.391 39.8 L 57.301 39.8 C 58.791 39.8 60 38.591 60 37.101 C 60 35.609 58.791 34.4 57.299 34.4 Z M 46.499 44.008 C 45.315 42.594 44.534 41.298 44.13 39.8 L 48.869 39.8 C 48.465 41.298 47.684 42.594 46.499 44.008 Z"/>
  <path style="fill: rgb(225, 165, 0);" d="M 49.214 46.678 C 48.92 45.928 48.196 45.434 47.391 45.434 L 27.305 45.434 C 26.718 45.434 26.163 45.696 25.79 46.15 C 25.418 46.603 25.271 47.2 25.386 47.774 L 28.516 63.426 C 28.707 64.377 29.514 64.962 30.365 64.999 C 30.421 65 30.477 65 30.533 64.999 C 30.967 64.979 31.402 64.814 31.763 64.481 L 48.719 48.829 C 49.311 48.283 49.507 47.428 49.214 46.678 Z"/>
  <path style="fill: rgb(253, 202, 0);" d="M 47.391 49.347 L 10.87 49.347 C 7.633 49.347 5 46.714 5 43.478 L 5 10.869 C 5 7.633 7.633 5 10.87 5 L 39.565 5 C 40.503 5 41.308 5.665 41.486 6.584 L 49.312 47.018 C 49.423 47.592 49.273 48.185 48.901 48.635 C 48.529 49.086 47.976 49.347 47.391 49.347 Z"/>
  <path style="fill:#E6F3FF;" d="M 24.501 40 C 17.057 40 11 33.941 11 26.5 C 11 19.057 17.057 13 24.501 13 C 26.326 13 28.1 13.362 29.762 14.068 C 31.476 14.799 32.274 16.782 31.543 18.497 C 30.808 20.204 28.831 21.009 27.11 20.277 C 26.293 19.928 25.409 19.75 24.499 19.75 C 20.774 19.75 17.749 22.775 17.749 26.5 C 17.749 30.225 20.774 33.25 24.499 33.25 C 26.993 33.25 29.173 31.89 30.348 29.874 L 27.875 29.874 C 26.011 29.874 24.499 28.364 24.499 26.5 C 24.499 24.633 26.011 23.124 27.875 23.124 L 34.625 23.124 C 36.49 23.124 38 24.633 38 26.5 C 38 33.941 31.943 40 24.501 40 Z"/>
  <g transform="matrix(0.117188, 0, 0, 0.117187, 0, 0)"/>
  <g transform="matrix(0.117188, 0, 0, 0.117187, 0, 0)"/>
  <g transform="matrix(0.117188, 0, 0, 0.117187, 0, 0)"/>
  <g transform="matrix(0.117188, 0, 0, 0.117187, 0, 0)"/>
  <g transform="matrix(0.117188, 0, 0, 0.117187, 0, 0)"/>
  <g transform="matrix(0.117188, 0, 0, 0.117187, 0, 0)"/>
  <g transform="matrix(0.117188, 0, 0, 0.117187, 0, 0)"/>
  <g transform="matrix(0.117188, 0, 0, 0.117187, 0, 0)"/>
  <g transform="matrix(0.117188, 0, 0, 0.117187, 0, 0)"/>
  <g transform="matrix(0.117188, 0, 0, 0.117187, 0, 0)"/>
  <g transform="matrix(0.117188, 0, 0, 0.117187, 0, 0)"/>
  <g transform="matrix(0.117188, 0, 0, 0.117187, 0, 0)"/>
  <g transform="matrix(0.117188, 0, 0, 0.117187, 0, 0)"/>
  <g transform="matrix(0.117188, 0, 0, 0.117187, 0, 0)"/>
  <g transform="matrix(0.117188, 0, 0, 0.117187, 0, 0)"/>
</svg>