<?xml version="1.0" encoding="utf-8"?>
<svg viewBox="0 0 170 600" width="170" height="600" xmlns="http://www.w3.org/2000/svg">
  <path d="M 114.321 502.823 C 107.909 490.352 95.02 465.422 86.416 439.575 C 77.779 413.734 73.394 386.982 60.409 362.074 C 47.456 337.158 25.871 314.093 13.239 289.108 C 0.577 264.129 -0.328 237.241 0.07 223.795 L 0.856 192.046 L 134.715 192.046 L 135.084 193.77 C 137.921 207.008 143.594 233.483 149.268 259.959 C 154.941 286.435 160.614 312.91 166.287 339.386 C 166.821 341.878 167.355 344.37 167.889 346.862 L 167.889 600 L 114.321 502.823 Z" fill="#ffeb9d" style="" transform="matrix(-1, 0, 0, -1, 167.888809, 792.046021)"/>
  <path d="M 90.076 373.803 C 82.792 347.673 61.206 324.606 50.669 299.174 C 40.1 273.747 40.547 245.96 35.357 219.381 C 30.167 192.801 19.339 167.431 13.926 154.744 L 0 133.832 L 103.104 133.832 L 136.278 133.832 C 139.115 147.07 136.278 168.416 136.278 194.549 C 136.278 220.682 136.278 246.472 136.278 271.92 C 136.278 274.469 135.744 286.155 136.278 288.647 L 136.278 600 C 133.235 562.575 96.781 397.855 90.076 373.803 Z" fill="#edc75b" style="" transform="matrix(-1, 0, 0, -1, 136.278, 733.832031)"/>
</svg>