<?xml version="1.0" encoding="utf-8"?>
<svg viewBox="0 0 168 500" width="168" height="500" xmlns="http://www.w3.org/2000/svg">
  <path d="M 114.321 310.777 C 107.909 298.306 95.02 273.376 86.416 247.529 C 77.779 221.688 73.394 194.936 60.409 170.028 C 47.456 145.112 25.871 122.047 13.239 97.062 C 0.577 72.083 -0.328 45.195 0.07 31.749 L 0.856 0 L 134.715 0 L 135.084 1.724 C 137.921 14.962 143.594 41.437 149.268 67.913 C 154.941 94.389 160.614 120.864 166.287 147.34 C 166.821 149.832 167.355 152.324 167.889 154.816 L 167.889 407.954 L 114.321 310.777 Z" fill="#ffeb9d" style=""/>
  <path d="M 121.687 239.971 C 114.403 213.841 92.817 190.774 82.28 165.342 C 71.711 139.915 72.158 112.128 66.968 85.549 C 61.778 58.969 50.95 33.599 45.537 20.912 L 31.611 0 L 134.715 0 L 135.084 1.724 C 137.921 14.962 143.594 41.437 149.268 67.913 C 154.941 94.389 160.614 120.864 166.287 147.34 C 166.821 149.832 167.355 152.323 167.889 154.815 L 167.889 466.168 C 164.846 428.743 128.392 264.023 121.687 239.971 Z" fill="#edc75b" style=""/>
  <path d="M 155.542 232.717 C 142.201 207.884 121.711 184.583 107.92 159.847 C 94.163 135.104 87.072 108.933 86.778 81.304 C 86.484 53.675 92.922 24.605 96.174 10.062 L 98.402 0 L 167.889 0 L 167.889 260.847 C 164.658 251.785 160.617 242.14 155.542 232.717 Z" fill="#dda200" style=""/>
</svg>